<svg width="30" height="30" viewBox="0 0 30 30" fill="none" xmlns="http://www.w3.org/2000/svg">
<path d="M15.0056 27.1642C15.7398 27.1642 16.4239 27.3759 17.0013 27.7426C18.1608 28.4788 19.5056 29.3701 20.8153 28.9563C20.9924 28.9004 21.1683 28.8414 21.3421 28.7787C22.3314 28.4222 22.498 27.2987 22.4943 26.2471V26.2471C22.4922 25.2605 22.8831 24.3118 23.5842 23.6021C24.1121 23.0692 24.7956 22.7089 25.5411 22.5705V22.5705C26.8116 22.3346 28.2783 22.0156 28.7817 20.8255C28.8046 20.7713 28.8272 20.7169 28.8495 20.6624C29.3414 19.4596 28.5295 18.1927 27.7938 17.1217V17.1217C27.3658 16.4986 27.1391 15.7644 27.143 15.0139C27.1391 14.2635 27.3658 13.5292 27.7938 12.9062V12.9062C28.5295 11.835 29.3417 10.5683 28.8508 9.36508C28.8278 9.30883 28.8045 9.25272 28.7809 9.19675C28.2783 8.00672 26.8108 7.68835 25.5407 7.45255V7.45255C24.7948 7.31408 24.1112 6.9528 23.5842 6.41853C22.8817 5.7096 22.4904 4.76026 22.494 3.77318V3.77318C22.4908 2.87649 22.2487 1.88853 21.4387 1.50398C21.1693 1.37612 20.8962 1.25621 20.6196 1.1444C19.4343 0.665303 18.1814 1.47186 17.1283 2.19679V2.19679C16.5044 2.62627 15.7611 2.85897 14.998 2.86368C14.2509 2.86368 13.5555 2.64442 12.9717 2.26647C11.8384 1.53279 10.5154 0.678962 9.26882 1.19725C9.02724 1.29769 8.78842 1.40448 8.55263 1.51751C7.74578 1.90429 7.50193 2.88611 7.50215 3.78087V3.78087C7.50418 4.76766 7.11303 5.71643 6.41165 6.42606C5.88429 6.95733 5.20214 7.31665 4.45824 7.45501V7.45501C3.19044 7.69081 1.72787 8.01189 1.22573 9.19965C1.2003 9.25981 1.17527 9.32012 1.15063 9.38059C0.661555 10.5811 1.46591 11.8457 2.19937 12.9145V12.9145C2.62542 13.5354 2.85292 14.2662 2.85292 15.0138C2.85292 15.7615 2.62542 16.4922 2.19937 17.1131V17.1131C1.46574 18.1822 0.660443 19.4466 1.14958 20.6474C1.17426 20.708 1.19934 20.7684 1.22482 20.8287C1.72718 22.0168 3.19008 22.3374 4.45823 22.5734V22.5734C5.20206 22.7118 5.88416 23.071 6.41164 23.6021C7.11545 24.3103 7.50695 25.2601 7.50198 26.2475V26.2475C7.50309 27.1418 7.7465 28.1237 8.55308 28.5101C8.79003 28.6235 9.03002 28.7308 9.27278 28.8316C10.5176 29.3488 11.8397 28.4997 12.9704 27.7657C13.5558 27.3858 14.2539 27.1642 15.0056 27.1642Z" fill="#DE892A"/>
</svg>
